<svg width="686" height="1144" viewBox="0 0 686 1144" fill="none" xmlns="http://www.w3.org/2000/svg">
<path d="M3.46238 221.49L3 221.785V222.333V379V380.789L4.52375 379.852L347.994 168.678L683.467 379.846L685 380.811V379V222.333V221.792L684.547 221.496L348.547 2.16262L348.006 1.80996L347.462 2.15681L3.46238 221.49Z" fill="#0F0AFF" stroke="#716A6A" stroke-width="2"/>
<path d="M685 450.265V449.265H684H474.248H473.248V450.265V821.771C473.248 867.375 461.438 902.657 437.946 927.758C414.454 952.859 382.438 965.45 341.773 965.45C301.934 965.45 270.323 952.863 246.827 927.758C223.335 902.657 211.525 867.375 211.525 821.771V450.265V449.265H210.525H2H1V450.265V849.971C1 909.764 12.0623 961.828 34.2239 1006.13C56.3837 1050.43 87.5872 1084.5 127.832 1108.31L127.839 1108.32L127.845 1108.32C168.085 1131.3 214.464 1142.78 266.95 1142.78C311.248 1142.78 351.473 1133.76 387.605 1115.7L387.613 1115.7C423.503 1097.36 452.057 1073.59 473.248 1044.36V1134.42V1135.42H474.248H684H685V1134.42V450.265Z" fill="black" stroke="black" stroke-width="2"/>
</svg>
